<svg viewBox="0 0 294 294" fill="none" xmlns="http://www.w3.org/2000/svg">
    <path d="M294 147L147 147L147 -1.93481e-05L286.563 -7.14711e-06C290.67 -6.78801e-06 294 3.32987 294 7.43749L294 147Z"
          fill="#FFE173"/>
    <path d="M294 286.563C294 290.67 290.67 294 286.563 294L147 294L147 147L294 147L294 286.563Z" fill="#7D2E34"/>
    <path d="M147 147L-6.49691e-06 147L5.70404e-06 7.43748C6.06314e-06 3.32986 3.32989 -1.90569e-05 7.43751 -1.86978e-05L147 -6.49691e-06L147 147Z"
          fill="#EE9A3D"/>
    <path d="M147 294L7.43749 294C3.32987 294 -6.2058e-06 290.67 -5.8467e-06 286.562L6.35424e-06 147L147 147L147 294Z"
          fill="#1D1315"/>
</svg>